<svg height="1286pt" viewBox="0.00 0.00 340.00 1286.00" width="340pt" xmlns="http://www.w3.org/2000/svg" xmlns:xlink="http://www.w3.org/1999/xlink">
<g class="graph" id="graph0" transform="scale(1 1) rotate(0) translate(4 1282)">
<title>G</title>
<polygon fill="white" points="-4,4 -4,-1282 336,-1282 336,4 -4,4" stroke="none"/>
<!-- 140314504238696 -->
<g class="node" id="node1"><title>140314504238696</title>
<polygon fill="none" points="86,-1241.5 86,-1277.5 246,-1277.5 246,-1241.5 86,-1241.5" stroke="black"/>
<text font-family="Times,serif" font-size="14.00" text-anchor="middle" x="166" y="-1255.8">input_1: InputLayer</text>
</g>
<!-- 140314504239928 -->
<g class="node" id="node2"><title>140314504239928</title>
<polygon fill="none" points="32.5,-1168.5 32.5,-1204.5 299.5,-1204.5 299.5,-1168.5 32.5,-1168.5" stroke="black"/>
<text font-family="Times,serif" font-size="14.00" text-anchor="middle" x="166" y="-1182.8">zero_padding2d_1: ZeroPadding2D</text>
</g>
<!-- 140314504238696&#45;&gt;140314504239928 -->
<g class="edge" id="edge1"><title>140314504238696-&gt;140314504239928</title>
<path d="M166,-1241.31C166,-1233.29 166,-1223.55 166,-1214.57" fill="none" stroke="black"/>
<polygon fill="black" points="169.5,-1214.53 166,-1204.53 162.5,-1214.53 169.5,-1214.53" stroke="black"/>
</g>
<!-- 140314504240152 -->
<g class="node" id="node3"><title>140314504240152</title>
<polygon fill="none" points="90.5,-1095.5 90.5,-1131.5 241.5,-1131.5 241.5,-1095.5 90.5,-1095.5" stroke="black"/>
<text font-family="Times,serif" font-size="14.00" text-anchor="middle" x="166" y="-1109.8">conv2d_1: Conv2D</text>
</g>
<!-- 140314504239928&#45;&gt;140314504240152 -->
<g class="edge" id="edge2"><title>140314504239928-&gt;140314504240152</title>
<path d="M166,-1168.31C166,-1160.29 166,-1150.55 166,-1141.57" fill="none" stroke="black"/>
<polygon fill="black" points="169.5,-1141.53 166,-1131.53 162.5,-1141.53 169.5,-1141.53" stroke="black"/>
</g>
<!-- 140315713257544 -->
<g class="node" id="node4"><title>140315713257544</title>
<polygon fill="none" points="0,-1022.5 0,-1058.5 332,-1058.5 332,-1022.5 0,-1022.5" stroke="black"/>
<text font-family="Times,serif" font-size="14.00" text-anchor="middle" x="166" y="-1036.8">batch_normalization_1: BatchNormalization</text>
</g>
<!-- 140314504240152&#45;&gt;140315713257544 -->
<g class="edge" id="edge3"><title>140314504240152-&gt;140315713257544</title>
<path d="M166,-1095.31C166,-1087.29 166,-1077.55 166,-1068.57" fill="none" stroke="black"/>
<polygon fill="black" points="169.5,-1068.53 166,-1058.53 162.5,-1068.53 169.5,-1068.53" stroke="black"/>
</g>
<!-- 140315713607160 -->
<g class="node" id="node5"><title>140315713607160</title>
<polygon fill="none" points="72.5,-949.5 72.5,-985.5 259.5,-985.5 259.5,-949.5 72.5,-949.5" stroke="black"/>
<text font-family="Times,serif" font-size="14.00" text-anchor="middle" x="166" y="-963.8">activation_1: Activation</text>
</g>
<!-- 140315713257544&#45;&gt;140315713607160 -->
<g class="edge" id="edge4"><title>140315713257544-&gt;140315713607160</title>
<path d="M166,-1022.31C166,-1014.29 166,-1004.55 166,-995.569" fill="none" stroke="black"/>
<polygon fill="black" points="169.5,-995.529 166,-985.529 162.5,-995.529 169.5,-995.529" stroke="black"/>
</g>
<!-- 140314433844672 -->
<g class="node" id="node6"><title>140314433844672</title>
<polygon fill="none" points="39,-876.5 39,-912.5 293,-912.5 293,-876.5 39,-876.5" stroke="black"/>
<text font-family="Times,serif" font-size="14.00" text-anchor="middle" x="166" y="-890.8">max_pooling2d_1: MaxPooling2D</text>
</g>
<!-- 140315713607160&#45;&gt;140314433844672 -->
<g class="edge" id="edge5"><title>140315713607160-&gt;140314433844672</title>
<path d="M166,-949.313C166,-941.289 166,-931.547 166,-922.569" fill="none" stroke="black"/>
<polygon fill="black" points="169.5,-922.529 166,-912.529 162.5,-922.529 169.5,-922.529" stroke="black"/>
</g>
<!-- 140314501560136 -->
<g class="node" id="node7"><title>140314501560136</title>
<polygon fill="none" points="32.5,-803.5 32.5,-839.5 299.5,-839.5 299.5,-803.5 32.5,-803.5" stroke="black"/>
<text font-family="Times,serif" font-size="14.00" text-anchor="middle" x="166" y="-817.8">zero_padding2d_2: ZeroPadding2D</text>
</g>
<!-- 140314433844672&#45;&gt;140314501560136 -->
<g class="edge" id="edge6"><title>140314433844672-&gt;140314501560136</title>
<path d="M166,-876.313C166,-868.289 166,-858.547 166,-849.569" fill="none" stroke="black"/>
<polygon fill="black" points="169.5,-849.529 166,-839.529 162.5,-849.529 169.5,-849.529" stroke="black"/>
</g>
<!-- 140314501560304 -->
<g class="node" id="node8"><title>140314501560304</title>
<polygon fill="none" points="90.5,-730.5 90.5,-766.5 241.5,-766.5 241.5,-730.5 90.5,-730.5" stroke="black"/>
<text font-family="Times,serif" font-size="14.00" text-anchor="middle" x="166" y="-744.8">conv2d_2: Conv2D</text>
</g>
<!-- 140314501560136&#45;&gt;140314501560304 -->
<g class="edge" id="edge7"><title>140314501560136-&gt;140314501560304</title>
<path d="M166,-803.313C166,-795.289 166,-785.547 166,-776.569" fill="none" stroke="black"/>
<polygon fill="black" points="169.5,-776.529 166,-766.529 162.5,-776.529 169.5,-776.529" stroke="black"/>
</g>
<!-- 140314432797608 -->
<g class="node" id="node9"><title>140314432797608</title>
<polygon fill="none" points="0,-657.5 0,-693.5 332,-693.5 332,-657.5 0,-657.5" stroke="black"/>
<text font-family="Times,serif" font-size="14.00" text-anchor="middle" x="166" y="-671.8">batch_normalization_2: BatchNormalization</text>
</g>
<!-- 140314501560304&#45;&gt;140314432797608 -->
<g class="edge" id="edge8"><title>140314501560304-&gt;140314432797608</title>
<path d="M166,-730.313C166,-722.289 166,-712.547 166,-703.569" fill="none" stroke="black"/>
<polygon fill="black" points="169.5,-703.529 166,-693.529 162.5,-703.529 169.5,-703.529" stroke="black"/>
</g>
<!-- 140314432938280 -->
<g class="node" id="node10"><title>140314432938280</title>
<polygon fill="none" points="72.5,-584.5 72.5,-620.5 259.5,-620.5 259.5,-584.5 72.5,-584.5" stroke="black"/>
<text font-family="Times,serif" font-size="14.00" text-anchor="middle" x="166" y="-598.8">activation_2: Activation</text>
</g>
<!-- 140314432797608&#45;&gt;140314432938280 -->
<g class="edge" id="edge9"><title>140314432797608-&gt;140314432938280</title>
<path d="M166,-657.313C166,-649.289 166,-639.547 166,-630.569" fill="none" stroke="black"/>
<polygon fill="black" points="169.5,-630.529 166,-620.529 162.5,-630.529 169.5,-630.529" stroke="black"/>
</g>
<!-- 140314432737120 -->
<g class="node" id="node11"><title>140314432737120</title>
<polygon fill="none" points="39,-511.5 39,-547.5 293,-547.5 293,-511.5 39,-511.5" stroke="black"/>
<text font-family="Times,serif" font-size="14.00" text-anchor="middle" x="166" y="-525.8">max_pooling2d_2: MaxPooling2D</text>
</g>
<!-- 140314432938280&#45;&gt;140314432737120 -->
<g class="edge" id="edge10"><title>140314432938280-&gt;140314432737120</title>
<path d="M166,-584.313C166,-576.289 166,-566.547 166,-557.569" fill="none" stroke="black"/>
<polygon fill="black" points="169.5,-557.529 166,-547.529 162.5,-557.529 169.5,-557.529" stroke="black"/>
</g>
<!-- 140314432522000 -->
<g class="node" id="node12"><title>140314432522000</title>
<polygon fill="none" points="32.5,-438.5 32.5,-474.5 299.5,-474.5 299.5,-438.5 32.5,-438.5" stroke="black"/>
<text font-family="Times,serif" font-size="14.00" text-anchor="middle" x="166" y="-452.8">zero_padding2d_3: ZeroPadding2D</text>
</g>
<!-- 140314432737120&#45;&gt;140314432522000 -->
<g class="edge" id="edge11"><title>140314432737120-&gt;140314432522000</title>
<path d="M166,-511.313C166,-503.289 166,-493.547 166,-484.569" fill="none" stroke="black"/>
<polygon fill="black" points="169.5,-484.529 166,-474.529 162.5,-484.529 169.5,-484.529" stroke="black"/>
</g>
<!-- 140314432520600 -->
<g class="node" id="node13"><title>140314432520600</title>
<polygon fill="none" points="90.5,-365.5 90.5,-401.5 241.5,-401.5 241.5,-365.5 90.5,-365.5" stroke="black"/>
<text font-family="Times,serif" font-size="14.00" text-anchor="middle" x="166" y="-379.8">conv2d_3: Conv2D</text>
</g>
<!-- 140314432522000&#45;&gt;140314432520600 -->
<g class="edge" id="edge12"><title>140314432522000-&gt;140314432520600</title>
<path d="M166,-438.313C166,-430.289 166,-420.547 166,-411.569" fill="none" stroke="black"/>
<polygon fill="black" points="169.5,-411.529 166,-401.529 162.5,-411.529 169.5,-411.529" stroke="black"/>
</g>
<!-- 140314432040520 -->
<g class="node" id="node14"><title>140314432040520</title>
<polygon fill="none" points="0,-292.5 0,-328.5 332,-328.5 332,-292.5 0,-292.5" stroke="black"/>
<text font-family="Times,serif" font-size="14.00" text-anchor="middle" x="166" y="-306.8">batch_normalization_3: BatchNormalization</text>
</g>
<!-- 140314432520600&#45;&gt;140314432040520 -->
<g class="edge" id="edge13"><title>140314432520600-&gt;140314432040520</title>
<path d="M166,-365.313C166,-357.289 166,-347.547 166,-338.569" fill="none" stroke="black"/>
<polygon fill="black" points="169.5,-338.529 166,-328.529 162.5,-338.529 169.5,-338.529" stroke="black"/>
</g>
<!-- 140314431938800 -->
<g class="node" id="node15"><title>140314431938800</title>
<polygon fill="none" points="72.5,-219.5 72.5,-255.5 259.5,-255.5 259.5,-219.5 72.5,-219.5" stroke="black"/>
<text font-family="Times,serif" font-size="14.00" text-anchor="middle" x="166" y="-233.8">activation_3: Activation</text>
</g>
<!-- 140314432040520&#45;&gt;140314431938800 -->
<g class="edge" id="edge14"><title>140314432040520-&gt;140314431938800</title>
<path d="M166,-292.313C166,-284.289 166,-274.547 166,-265.569" fill="none" stroke="black"/>
<polygon fill="black" points="169.5,-265.529 166,-255.529 162.5,-265.529 169.5,-265.529" stroke="black"/>
</g>
<!-- 140314431535312 -->
<g class="node" id="node16"><title>140314431535312</title>
<polygon fill="none" points="39,-146.5 39,-182.5 293,-182.5 293,-146.5 39,-146.5" stroke="black"/>
<text font-family="Times,serif" font-size="14.00" text-anchor="middle" x="166" y="-160.8">max_pooling2d_3: MaxPooling2D</text>
</g>
<!-- 140314431938800&#45;&gt;140314431535312 -->
<g class="edge" id="edge15"><title>140314431938800-&gt;140314431535312</title>
<path d="M166,-219.313C166,-211.289 166,-201.547 166,-192.569" fill="none" stroke="black"/>
<polygon fill="black" points="169.5,-192.529 166,-182.529 162.5,-192.529 169.5,-192.529" stroke="black"/>
</g>
<!-- 140314431537104 -->
<g class="node" id="node17"><title>140314431537104</title>
<polygon fill="none" points="96,-73.5 96,-109.5 236,-109.5 236,-73.5 96,-73.5" stroke="black"/>
<text font-family="Times,serif" font-size="14.00" text-anchor="middle" x="166" y="-87.8">flatten_1: Flatten</text>
</g>
<!-- 140314431535312&#45;&gt;140314431537104 -->
<g class="edge" id="edge16"><title>140314431535312-&gt;140314431537104</title>
<path d="M166,-146.313C166,-138.289 166,-128.547 166,-119.569" fill="none" stroke="black"/>
<polygon fill="black" points="169.5,-119.529 166,-109.529 162.5,-119.529 169.5,-119.529" stroke="black"/>
</g>
<!-- 140314431166112 -->
<g class="node" id="node18"><title>140314431166112</title>
<polygon fill="none" points="102,-0.5 102,-36.5 230,-36.5 230,-0.5 102,-0.5" stroke="black"/>
<text font-family="Times,serif" font-size="14.00" text-anchor="middle" x="166" y="-14.8">dense_1: Dense</text>
</g>
<!-- 140314431537104&#45;&gt;140314431166112 -->
<g class="edge" id="edge17"><title>140314431537104-&gt;140314431166112</title>
<path d="M166,-73.3129C166,-65.2895 166,-55.5475 166,-46.5691" fill="none" stroke="black"/>
<polygon fill="black" points="169.5,-46.5288 166,-36.5288 162.5,-46.5289 169.5,-46.5288" stroke="black"/>
</g>
</g>
</svg>